HIERARCHY
ROOT Root
{
	OFFSET 0.00000 0.00000 0.00000
	CHANNELS 6 Xposition Yposition Zposition Zrotation Xrotation Yrotation
	JOINT Hips
	{
		OFFSET 0 0 0	
		CHANNELS 3 Zrotation Xrotation Yrotation
		JOINT Spine
		{
			OFFSET 0 4 0	
			CHANNELS 3 Zrotation Xrotation Yrotation
			JOINT Spine1
			{
				OFFSET 0 19.4 0	
				CHANNELS 3 Zrotation Xrotation Yrotation
				JOINT Spine2
				{
					OFFSET 0 16.6 0	
					CHANNELS 3 Zrotation Xrotation Yrotation
					JOINT LeftCollar
					{
						OFFSET 0 10 0	
						CHANNELS 3 Zrotation Xrotation Yrotation
						JOINT LeftArm
						{
							OFFSET 15.6 -2 3	
							CHANNELS 3 Zrotation Xrotation Yrotation
							JOINT LeftForeArm
							{
								OFFSET 3.5 -27 -1	
								CHANNELS 3 Zrotation Xrotation Yrotation
								JOINT LeftHand
								{
									OFFSET 1 -27 1	
									CHANNELS 3 Zrotation Xrotation Yrotation
									End Site
									{
										OFFSET 0 -15 0
									}
								}
							}
						}
					}
					JOINT RightCollar
					{
						OFFSET 0 10 0	
						CHANNELS 3 Zrotation Xrotation Yrotation
						JOINT RightArm
						{
							OFFSET -15.6 -2 3	
							CHANNELS 3 Zrotation Xrotation Yrotation
							JOINT RightForeArm
							{
								OFFSET -3.5 -27 -1	
								CHANNELS 3 Zrotation Xrotation Yrotation
								JOINT RightHand
								{
									OFFSET -1 -27 1	
									CHANNELS 3 Zrotation Xrotation Yrotation
									End Site
									{
										OFFSET 0 -15 0
									}
								}
							}
						}
					}
					JOINT Neck
					{
						OFFSET 0 10 0	
						CHANNELS 3 Zrotation Xrotation Yrotation
						JOINT Head
						{
							OFFSET 0 12.7 3	
							CHANNELS 3 Zrotation Xrotation Yrotation
							End Site
							{
								OFFSET 0 12.7 3
							}
						}
					}
				}
			}
		}
	}
	JOINT LeftHip
	{
		OFFSET 0 0 0	
		CHANNELS 3 Zrotation Xrotation Yrotation
		JOINT LeftUpLeg
		{
			OFFSET 8.8 -6 0	
			CHANNELS 3 Zrotation Xrotation Yrotation
			JOINT LeftLeg
			{
				OFFSET 0 -39 2	
				CHANNELS 3 Zrotation Xrotation Yrotation
				JOINT LeftFoot
				{
					OFFSET 0 -43 -2	
					CHANNELS 3 Zrotation Xrotation Yrotation
					JOINT LeftFootFront
					{
						OFFSET 0 -7 8.5	
						CHANNELS 3 Zrotation Xrotation Yrotation
						End Site
						{
							OFFSET 0 -0.5 9
						}
					}
				}
				JOINT LeftHeel
				{
					OFFSET 0 -43 -2	
					CHANNELS 3 Zrotation Xrotation Yrotation
					End Site
					{
						OFFSET 0 -7.5 -5
					}
				}
			}
		}
	}
	JOINT RightHip
	{
		OFFSET 0 0 0	
		CHANNELS 3 Zrotation Xrotation Yrotation
		JOINT RightUpLeg
		{
			OFFSET -8.8 -6 0	
			CHANNELS 3 Zrotation Xrotation Yrotation
			JOINT RightLeg
			{
				OFFSET 0 -39 2	
				CHANNELS 3 Zrotation Xrotation Yrotation
				JOINT RightFoot
				{
					OFFSET 0 -43 -2	
					CHANNELS 3 Zrotation Xrotation Yrotation
					JOINT RightFootFront
					{
						OFFSET 0 -7 8.5	
						CHANNELS 3 Zrotation Xrotation Yrotation
						End Site
						{
							OFFSET 0 -0.5 9
						}
					}
				}
				JOINT RightHeel
				{
					OFFSET 0 -43 -2	
					CHANNELS 3 Zrotation Xrotation Yrotation
					End Site
					{
						OFFSET 0 -7.5 -5
					}
				}
			}
		}
	}
}
MOTION
Frames: 21
Frame Time: 0.05
65.342 96.031 182.73 -0 0 -0 -2.0023 -6.7199 10.094 1.0641 0.20751 2.1634 1.0641 0.20751 2.1634 0.89439 0.17161 1.8175 -0 0 -0 2.7602 5.9404 11.978 11.589 7.0279 9.3695 0.095443 6.0137 -16.565 -0 0 -0 -2.9044 -13.127 -6.1598 8.4491 -25.994 -7.8649 12.165 -4.9181 2.6068 -1.8656 -1.8647 -6.9816 -0.91099 -1.7514 -5.1586 -2.0023 -6.7199 10.094 1.966 13.041 6.2193 -0.60638 -8.1235 -13.102 -0 0 -0 0 0 -5.0026e-08 -0 0 -0 -2.0023 -6.7199 10.094 2.1783 12.141 14.881 9.4365 17.803 24.096 -0 0 -0 0 0 -6.4033e-07 -0 0 -0 
66.941 96.056 182.77 -0 0 -0 -2.4052 -7.948 10.382 0.74427 0.68259 1.1381 0.74427 0.68259 1.1381 0.6261 0.57238 0.95662 -0 0 -0 2.3884 4.9789 12.203 10.902 7.0244 8.9693 1.0875 6.4035 -17.503 -0 0 -0 -2.3455 -10.491 -10.005 11.754 -26.724 -3.0482 13.388 -6.4644 2.1367 -1.2119 -1.9632 -5.2261 -0.55252 -1.4109 -4.2573 -2.4052 -7.948 10.382 1.8914 13.98 6.5495 -0.89415 -7.7338 -15.129 -0 0 -0 -0 0 3.6686e-08 -0 0 -0 -2.4052 -7.948 10.382 0.87462 7.3579 17.057 13.909 19.423 22.839 -0 0 -0 0 0 -1.4941e-06 -0 0 -0 
68.337 96.057 182.88 -0 0 -0 -2.8427 -8.9797 10.651 0.49105 1.0544 0.16746 0.49105 1.0544 0.16746 0.41268 0.88564 0.14127 -0 0 -0 1.2778 3.4949 12.208 9.7752 6.9123 8.2444 1.8754 6.2392 -18.189 -0 0 -0 -2.2665 -7.9516 -14.983 13.339 -23.996 0.81847 14.009 -6.9334 2.5388 -0.64916 -2.0319 -3.6009 -0.23119 -1.1479 -3.4496 -2.8427 -8.9797 10.651 2.1014 14.664 5.8976 -1.0745 -6.9462 -15.918 -0 0 -0 0 0 -8.3376e-09 -0 0 -0 -2.8427 -8.9797 10.651 0.56011 2.2567 17.84 16.162 18.82 20.683 -0 0 -0 0 0 -2.1344e-07 -0 0 -0 
69.514 96.032 183.12 -0 0 -0 -3.0164 -9.7256 11.273 0.16849 1.3064 -0.8292 0.16849 1.3064 -0.8292 0.14026 1.0976 -0.69625 -0 0 -0 -0.22022 1.8069 10.865 8.4098 6.6788 7.9492 1.7999 5.4544 -18.346 -0 0 -0 -2.2858 -5.4119 -19.448 11.633 -18.893 1.8358 13.574 -6.6793 3.8912 -0.045972 -2.0637 -2.1403 0.069237 -0.96543 -2.8357 -3.0164 -9.7256 11.273 2.3763 15.249 4.7216 -1.3117 -6.0955 -16.181 -0 0 -0 -0 0 6.6701e-09 -0 0 -0 -3.0164 -9.7256 11.273 0.53762 -3.6842 19.309 16.958 16.175 15.82 -0 0 -0 0 0 -1.6809e-06 -0 0 -0 
70.478 95.987 183.44 -0 0 -0 -2.962 -9.8583 12.257 -0.33477 1.3249 -1.9197 -0.33477 1.3249 -1.9197 -0.28418 1.1121 -1.613 -0 0 -0 -1.4481 0.20357 8.4245 6.8989 6.2572 8.0505 1.2096 4.4419 -18.202 -0 0 -0 -1.6831 -2.7605 -22.349 6.6668 -12.266 -0.068309 12.371 -6.4853 5.7165 0.76236 -1.9327 -0.70205 0.42312 -0.84131 -2.3296 -2.962 -9.8583 12.257 2.3366 15.384 4.0005 -1.4631 -5.5048 -17.099 -0 0 -0 0 0 -3.1266e-09 -0 0 -0 -2.962 -9.8583 12.257 0.54945 -9.694 22.48 15.667 11.013 9.3434 -0 0 -0 -0 0 1.4674e-06 -0 0 -0 
71.244 95.928 183.8 -0 0 -0 -2.8304 -9.6602 13.235 -0.89202 1.2362 -3.0392 -0.89202 1.2362 -3.0392 -0.75371 1.0352 -2.5542 -0 0 -0 -2.2542 -1.1794 5.4449 5.3041 5.5419 8.1926 0.4888 3.4502 -18.033 -0 0 -0 -0.86634 0.11265 -22.542 0.36698 -4.7325 -5.1092 10.68 -6.7933 7.8231 1.6191 -1.7265 0.71311 0.78627 -0.76211 -1.8691 -2.8304 -9.6602 13.235 2.0431 15.371 3.8927 -1.5619 -5.3312 -18.405 -0 0 -0 -4.2664e-07 -0.36316 7.7856e-08 -0 0 -0 -2.8304 -9.6602 13.235 0.31416 -14.892 26.003 11.775 4.466 4.1637 -0 0 -0 0 0 -4.0021e-07 -0 0 -0 
71.827 95.862 184.14 -0 0 -0 -2.6518 -9.2757 13.991 -1.4111 1.1319 -4.0633 -1.4111 1.1319 -4.0633 -1.1908 0.9441 -3.415 -0 0 -0 -2.7068 -2.4836 1.9925 3.8247 4.7207 8.3565 -0.27073 2.4678 -17.872 -0 0 -0 -0.52696 3.2103 -22.001 -4.9109 2.7941 -9.3406 9.0117 -6.7916 9.428 2.3596 -1.6062 1.9217 1.0682 -0.80053 -1.5292 -2.6518 -9.2757 13.991 1.7639 15.346 3.8328 -1.8309 -5.4469 -19.289 -0 0 -0 -4.273e-07 -0.50163 -9.4419e-08 -0 0 -0 -2.6518 -9.2757 13.991 0.060228 -19.489 28.558 5.686 -1.5887 1.7345 -0 0 -0 0 0 -1.2807e-06 -0 0 -0 
72.248 95.799 184.4 -0 0 -0 -2.4088 -8.6908 14.563 -1.866 1.0057 -4.9862 -1.866 1.0057 -4.9862 -1.5734 0.83392 -4.1906 -0 0 -0 -2.9841 -4.1284 -1.7751 3.2032 4.4653 7.7969 -1.0102 1.8391 -17.944 -0 0 -0 -0.64736 6.5959 -21.748 -8.6378 8.2006 -10.533 7.9883 -5.7109 10.078 2.9421 -1.5811 2.8369 1.2444 -0.95885 -1.3912 -2.4088 -8.6908 14.563 1.3877 15.28 4.0948 -2.1162 -5.8458 -19.922 -0 0 -0 -4.2689e-07 -0.38257 -1.4252e-09 -0 0 -0 -2.4088 -8.6908 14.563 0.094345 -23.021 30.278 -1.4928 -5.6204 1.8323 -0 0 -0 -0 0 1.4941e-06 -0 0 -0 
72.539 95.746 184.58 -0 0 -0 -2.062 -7.9684 14.791 -2.275 0.82944 -5.553 -2.275 0.82944 -5.553 -1.9166 0.68198 -4.6668 -0 0 -0 -3.2757 -5.8874 -6.3642 3.9187 4.7337 6.26 -2.0032 1.7517 -17.817 -0 0 -0 -0.77998 10.049 -21.849 -10.283 10.497 -10.093 7.2755 -4.0594 9.8462 3.4071 -1.5651 3.069 1.351 -1.1561 -1.6308 -2.062 -7.9684 14.791 0.86598 15.017 4.6926 -2.497 -6.2913 -20.176 -0 0 -0 -0 0 2.5273e-08 -0 0 -0 -2.062 -7.9684 14.791 0.86066 -24.616 31.877 -7.6968 -6.7274 -1.6372 -0 0 -0 0 0 -8.5377e-07 -0 0 -0 
72.742 95.707 184.66 -0 0 -0 -1.9554 -7.6609 14.801 -2.571 0.99164 -5.9843 -2.571 0.99164 -5.9843 -2.1667 0.81503 -5.0298 -0 0 -0 -3.2043 -8.1138 -10.515 4.8494 5.1262 5.2536 -2.5326 2.249 -18.562 -0 0 -0 -0.38964 12.062 -21.983 -9.9614 10.704 -9.2903 6.5556 -2.0609 9.4432 3.9176 -1.9659 3.0722 1.562 -1.4883 -2.0029 -1.9554 -7.6609 14.801 0.48866 14.945 4.9648 -2.6622 -6.6653 -19.574 -0 0 -0 0 0 -9.1714e-09 -0 0 -0 -1.9554 -7.6609 14.801 2.9257 -23.562 33.072 -9.9206 -6.5546 -5.3689 -0 0 -0 -0 0 8.5377e-07 -0 0 -0 
72.893 95.686 184.69 -0 0 -0 -2.1209 -7.9285 14.586 -2.6851 1.4915 -6.4933 -2.6851 1.4915 -6.4933 -2.267 1.2326 -5.4589 -0 0 -0 -2.8077 -10.657 -13.018 5.3931 5.6599 6.0468 -2.0894 2.8372 -20.669 -0 0 -0 0.13513 11.856 -21.787 -8.8084 10.343 -9.2054 6.5084 -0.045445 9.686 4.3572 -2.6201 3.3367 1.818 -1.7929 -2.202 -2.1209 -7.9285 14.586 0.48026 15.277 5.2011 -2.7248 -6.8169 -18.629 -0 0 -0 0 0 -1.334e-08 -0 0 -0 -2.1209 -7.9285 14.586 6.3557 -20.905 33.57 -10.311 -4.7369 -3.7689 -0 0 -0 0 0 -8.5377e-07 -0 0 -0 
73.009 95.68 184.68 -0 0 -0 -2.5459 -8.1803 14.115 -2.5696 1.6782 -6.8873 -2.5696 1.6782 -6.8873 -2.1722 1.3892 -5.7902 -0 0 -0 -2.7352 -12.052 -14.508 5.4884 6.0291 8.132 -1.3603 3.0477 -23.006 -0 0 -0 0.45077 10.296 -22.354 -8.1526 10.026 -8.7044 7.0424 1.5771 9.5001 4.4222 -2.5439 3.5294 1.9674 -1.5911 -2.3517 -2.5459 -8.1803 14.115 0.65637 15.725 5.7981 -2.8179 -7.0099 -17.975 -0 0 -0 -0 0 5.753e-08 -0 0 -0 -2.5459 -8.1803 14.115 10.433 -18.788 33.755 -9.2242 -0.19968 0.58768 -0 0 -0 -0 0 6.4033e-07 -0 0 -0 
73.088 95.683 184.65 -0 0 -0 -3.133 -7.9849 13.104 -2.3331 1.4981 -7.0236 -2.3331 1.4981 -7.0236 -1.9724 1.2394 -5.9038 -0 0 -0 -2.8582 -12.712 -14.821 5.2617 6.1161 9.266 -0.85657 2.8472 -23.453 -0 0 -0 0.95389 8.1021 -23.178 -7.8265 9.3038 -8.3372 7.6208 2.938 9.1361 4.2611 -2.065 3.5868 2.0513 -1.2557 -2.3932 -3.133 -7.9849 13.104 0.85201 15.615 6.7915 -3.0784 -7.205 -17.624 -0 0 -0 0 0 -3.6686e-08 -0 0 -0 -3.133 -7.9849 13.104 12.498 -18.635 35.178 -4.9602 7.058 4.3209 -0 0 -0 -0 0 4.2689e-07 -0 0 -0 
73.119 95.689 184.62 -0 0 -0 -3.6594 -7.6494 12.175 -1.9832 1.2257 -7.0127 -1.9832 1.2257 -7.0127 -1.6762 1.0134 -5.8934 -0 0 -0 -3.1435 -13.04 -14.352 4.7022 6.0884 9.2132 -0.67537 2.3366 -22.883 -0 0 -0 1.6964 5.8826 -23.236 -7.1988 7.7172 -9.8803 7.8405 3.5103 9.1291 3.8944 -1.8794 3.4418 2.003 -1.2577 -2.5077 -3.6594 -7.6494 12.175 1.1887 15.293 7.2325 -3.3208 -7.3235 -16.922 -0 0 -0 0 0 -8.5044e-08 -0 0 -0 -3.6594 -7.6494 12.175 11.965 -19.867 36.033 2.8267 15.757 7.8385 -0 0 -0 0 0 -4.5357e-07 -0 0 -0 
73.098 95.689 184.6 -0 0 -0 -3.814 -7.3455 11.577 -1.6803 1.1022 -6.8838 -1.6803 1.1022 -6.8838 -1.4205 0.91243 -5.7845 -0 0 -0 -3.3681 -13.107 -13.908 3.9967 6.0171 9.3196 -0.73058 1.5201 -22.67 -0 0 -0 2.5595 3.1456 -22.542 -6.3479 5.677 -12.51 7.8622 3.3308 9.1115 3.5539 -2.2227 3.0664 1.8896 -1.6585 -2.7655 -3.814 -7.3455 11.577 1.2957 14.91 7.5109 -3.4927 -7.2122 -16.564 -0 0 -0 -0 0 8.5044e-08 -0 0 -0 -3.814 -7.3455 11.577 10.712 -21.087 35.709 12.225 25.117 7.2607 -0 0 -0 -0 0 1.1917e-06 -0 0 -0 
73.029 95.679 184.61 -0 0 -0 -3.6924 -7.0356 11.399 -1.4452 1.0122 -6.6613 -1.4452 1.0122 -6.6613 -1.222 0.83902 -5.5971 -0 0 -0 -3.5882 -12.4 -13.496 3.4243 5.8733 10.222 -1.2106 0.44741 -22.593 -0 0 -0 3.6606 -0.1407 -21.008 -5.8917 3.663 -15.351 7.8533 2.9948 8.1377 3.2449 -2.6509 2.4261 1.7472 -2.1167 -3.213 -3.6924 -7.0356 11.399 1.172 14.432 7.6691 -3.5019 -6.9903 -16.588 -0 0 -0 0 0 -1.0089e-07 -0 0 -0 -3.6924 -7.0356 11.399 9.1752 -21.729 35.224 23.098 33.646 2.1366 -0 0 -0 0 0 -1.0672e-06 -0 0 -0 
72.916 95.659 184.66 -0 0 -0 -3.4189 -6.9933 11.634 -1.348 0.99891 -6.3398 -1.348 0.99891 -6.3399 -1.1399 0.82915 -5.327 -0 0 -0 -3.5757 -10.747 -12.242 2.9483 5.7732 11.744 -1.6345 -0.70545 -22.803 -0 0 -0 5.7118 -3.9421 -18.088 -6.6207 2.5781 -18.582 7.837 2.8002 6.8273 3.078 -2.9032 1.492 1.6535 -2.3482 -3.876 -3.4189 -6.9933 11.634 0.95455 14.372 7.9403 -3.5326 -6.8505 -17.041 -0 0 -0 -0 0 4.5857e-08 -0 0 -0 -3.4189 -6.9933 11.634 7.6578 -21.495 34.171 34.41 40.24 -3.7894 -0 0 -0 -0 0 5.3361e-07 -0 0 -0 
72.756 95.634 184.72 -0 0 -0 -3.1216 -7.0559 12.136 -1.302 0.97218 -5.8995 -1.302 0.97217 -5.8995 -1.1005 0.8077 -4.957 -0 0 -0 -3.4 -8.4003 -9.7313 3.016 6.0399 12.769 -2.0806 -1.6353 -23.181 -0 0 -0 8.449 -7.567 -13.713 -8.4226 2.8857 -22.333 7.8336 2.2297 6.0435 2.8708 -2.9981 0.2663 1.4988 -2.4279 -4.7291 -3.1216 -7.0559 12.136 0.81989 14.529 8.2856 -3.5956 -6.7225 -17.793 -0 0 -0 3.4731e-10 -0.31404 1.2673e-07 -0 0 -0 -3.1216 -7.0559 12.136 6.3475 -20.317 33.459 44.753 43.666 -9.5083 -0 0 -0 0 0 -8.5377e-07 -0 0 -0 
72.534 95.612 184.76 -0 0 -0 -2.8247 -6.6812 12.566 -1.0856 0.73279 -5.1289 -1.0856 0.73279 -5.1289 -0.91637 0.60906 -4.3092 -0 0 -0 -3.7523 -5.7739 -6.7474 4.2241 6.7434 12.427 -2.9057 -2.0234 -23.086 -0 0 -0 10.212 -10.312 -9.2617 -10.128 3.9102 -25.52 7.9295 1.4648 5.9031 2.1599 -3.1417 -1.4878 1.0002 -2.6863 -5.8214 -2.8247 -6.6812 12.566 0.5786 14.275 8.4924 -3.6522 -6.6897 -17.922 -0 0 -0 8.8434e-10 -0.56267 1.801e-07 -0 0 -0 -2.8247 -6.6812 12.566 5.0908 -18.2 32.23 49.919 44.539 -12.698 -0 0 -0 -0 0 8.5377e-07 -0 0 -0 
72.222 95.601 184.74 -0 0 -0 -2.6913 -5.88 12.835 -0.65442 0.28678 -3.9669 -0.65442 0.28678 -3.9669 -0.55107 0.23786 -3.3324 -0 0 -0 -4.5321 -3.2176 -3.6552 6.504 7.7307 10.569 -3.6616 -1.6286 -22.773 -0 0 -0 10.326 -12.061 -5.8646 -10.728 4.3746 -26.785 7.943 0.55386 5.669 1.0438 -3.3522 -3.8568 0.2957 -3.1693 -7.198 -2.6913 -5.88 12.835 0.27643 13.574 8.6263 -3.6067 -6.8697 -17.512 -0 0 -0 3.0506e-10 -0.47642 7.3373e-08 -0 0 -0 -2.6913 -5.88 12.835 4.6863 -15.024 28.893 46.944 45.2 -13.006 -0 0 -0 -0 0 4.2689e-07 -0 0 -0 
71.783 95.604 184.63 -0 0 -0 -2.8699 -4.5694 12.102 -0.11328 -0.31022 -2.2476 -0.11327 -0.31022 -2.2476 -0.094335 -0.26089 -1.8879 -0 0 -0 -4.8708 -0.93628 -0.27895 8.9837 8.4814 7.9416 -3.8899 -0.76613 -22.937 -0 0 -0 9.3756 -13.181 -2.8119 -10.229 3.6814 -26.823 7.5933 0.26117 5.069 -0.19417 -3.6367 -6.6102 -0.40846 -3.8892 -8.5034 -2.8699 -4.5694 12.102 0.024556 12.423 9.2704 -3.6656 -7.3233 -16.54 -0 0 -0 0 0 -7.3371e-08 -0 0 -0 -2.8699 -4.5694 12.102 5.2581 -11.003 25.719 38.224 43.902 -12.449 -0 0 -0 0 0 -1.2807e-06 -0 0 -0 
